<svg width="20" height="20" viewBox="0 0 20 20" fill="none" xmlns="http://www.w3.org/2000/svg">
<path fill-rule="evenodd" clip-rule="evenodd" d="M9.27727 0.514938C8.89617 0.514938 8.53068 0.678843 8.2612 0.970597C7.99172 1.26235 7.84033 1.65805 7.84033 2.07065C7.84033 2.48326 7.99172 2.87896 8.2612 3.17071C8.53068 3.46247 8.89617 3.62637 9.27727 3.62637H13.1973C14.1896 3.64729 15.1348 4.08879 15.8298 4.85601C16.5248 5.62323 16.9141 6.65497 16.9141 7.72957C16.9141 8.80418 16.5248 9.83592 15.8298 10.6031C15.1348 11.3704 14.1896 11.8119 13.1973 11.8328H6.79423V9.1445C6.79417 8.83686 6.70986 8.53614 6.55196 8.28036C6.39406 8.02459 6.16967 7.82524 5.90714 7.70752C5.64461 7.5898 5.35573 7.55899 5.07703 7.61899C4.79833 7.67899 4.54232 7.8271 4.34136 8.04461L0.424246 12.2855C0.222445 12.5025 0.0846811 12.7795 0.0284044 13.0814C-0.0278724 13.3833 -0.000129876 13.6964 0.108118 13.9812C0.178049 14.1679 0.282467 14.3375 0.421372 14.4899L4.34136 18.7339C4.54232 18.9514 4.79833 19.0996 5.07703 19.1596C5.35573 19.2196 5.64461 19.1887 5.90714 19.071C6.16967 18.9533 6.39406 18.754 6.55196 18.4982C6.70986 18.2424 6.79417 17.9417 6.79423 17.634V14.9442H13.1973C14.0806 14.9583 14.9577 14.782 15.7776 14.4258C16.5974 14.0695 17.3437 13.5403 17.9729 12.869C18.6022 12.1976 19.1019 11.3975 19.443 10.5152C19.784 9.63295 19.9597 8.68603 19.9597 7.72957C19.9597 6.77312 19.784 5.8262 19.443 4.9439C19.1019 4.0616 18.6022 3.26152 17.9729 2.59019C17.3437 1.91885 16.5974 1.38966 15.7776 1.0334C14.9577 0.67713 14.0806 0.500894 13.1973 0.514938H9.27727Z" fill="#FEB601"/>
</svg>
