<svg width="21" height="18" viewBox="0 0 21 18" fill="none" xmlns="http://www.w3.org/2000/svg">
<path d="M20.9766 6.77068L20.4212 5.84707C20.3962 5.80635 20.3553 5.7767 20.3074 5.76458C20.2596 5.75245 20.2086 5.75885 20.1657 5.78237L18.9775 6.44273L17.1425 1.61944C17.0456 1.33164 16.8552 1.08059 16.5986 0.902549C16.3421 0.724505 16.0327 0.628679 15.7153 0.628907H5.56059C4.74738 0.628907 4.02556 1.12864 3.77479 1.86708L2.02649 6.44496L0.835962 5.7846C0.793039 5.76108 0.742084 5.75468 0.694222 5.76681C0.646361 5.77893 0.605482 5.80859 0.580513 5.8493L0.0250876 6.77068C-0.0264709 6.85545 0.00399551 6.96254 0.0930511 7.01162L1.50857 7.79691L1.16875 8.68929C1.14063 8.76067 1.12656 8.83653 1.12656 8.91238V16.6805C1.12656 17.0308 1.40311 17.3141 1.74292 17.3141H3.32717C3.61543 17.3141 3.86619 17.1066 3.92713 16.8166L4.10758 15.9755H16.8941L17.0745 16.8166C17.1378 17.1066 17.3862 17.3141 17.6745 17.3141H19.2587C19.5986 17.3141 19.8751 17.0308 19.8751 16.6805V8.91238C19.8751 8.83653 19.861 8.76067 19.8329 8.68929L19.4931 7.79691L20.9063 7.01162C20.9488 6.98823 20.98 6.94989 20.9932 6.90483C21.0063 6.85977 21.0004 6.8116 20.9766 6.77068ZM4.68879 11.4021C4.17086 11.4021 3.75136 11.0028 3.75136 10.5097C3.75136 10.0167 4.17086 9.61736 4.68879 9.61736C5.20671 9.61736 5.62621 10.0167 5.62621 10.5097C5.62621 11.0028 5.20671 11.4021 4.68879 11.4021ZM13.7818 13.0753C13.7818 13.1735 13.6975 13.2538 13.5943 13.2538H7.40732C7.30421 13.2538 7.21984 13.1735 7.21984 13.0753V11.2013C7.21984 11.1032 7.30421 11.0228 7.40732 11.0228H8.34475C8.44787 11.0228 8.53224 11.1032 8.53224 11.2013V12.0045H12.4694V11.2013C12.4694 11.1032 12.5538 11.0228 12.6569 11.0228H13.5943C13.6975 11.0228 13.7818 11.1032 13.7818 11.2013V13.0753ZM16.3129 11.4021C15.7949 11.4021 15.3755 11.0028 15.3755 10.5097C15.3755 10.0167 15.7949 9.61736 16.3129 9.61736C16.8308 9.61736 17.2503 10.0167 17.2503 10.5097C17.2503 11.0028 16.8308 11.4021 16.3129 11.4021ZM3.65762 6.8733L5.36139 2.41366L5.37311 2.38465L5.38248 2.35565C5.40826 2.28203 5.47857 2.23295 5.56059 2.23295H15.5817L17.3487 6.8733H3.65762Z" fill="black"/>
</svg>
