<svg width="29" height="34" viewBox="0 0 29 34" fill="none" xmlns="http://www.w3.org/2000/svg">
<path d="M6.04167 10.9279C6.04167 8.67353 6.93281 6.51146 8.51906 4.91736C10.1053 3.32326 12.2567 2.4277 14.5 2.4277C16.7433 2.4277 18.8947 3.32326 20.4809 4.91736C22.0672 6.51146 22.9583 8.67353 22.9583 10.9279C22.9583 11.25 23.0856 11.5589 23.3122 11.7866C23.5389 12.0143 23.8462 12.1423 24.1667 12.1423C24.4871 12.1423 24.7945 12.0143 25.0211 11.7866C25.2477 11.5589 25.375 11.25 25.375 10.9279C25.3748 9.06411 24.9004 7.2313 23.9967 5.6037C23.093 3.9761 21.7901 2.6078 20.2119 1.62886C18.6337 0.649919 16.8326 0.0928629 14.9797 0.0106411C13.1269 -0.0715808 11.2839 0.323764 9.62601 1.1591C7.96808 1.99443 6.55027 3.24199 5.50734 4.78321C4.46442 6.32442 3.83104 8.10808 3.66741 9.96463C3.50378 11.8212 3.81533 13.6889 4.57245 15.3904C5.32957 17.0918 6.5071 18.5704 7.99312 19.6856C9.2674 20.6422 10.735 21.3063 12.2924 21.6309C12.5087 22.1186 12.8789 22.521 13.3458 22.776C13.8126 23.0309 14.35 23.1241 14.8748 23.0412C15.3997 22.9583 15.8827 22.7039 16.2492 22.3174C16.6157 21.9308 16.8453 21.4336 16.9023 20.9028C16.9594 20.372 16.8408 19.837 16.5648 19.3807C16.2889 18.9245 15.8711 18.5723 15.3759 18.3787C14.8808 18.1851 14.336 18.1608 13.8257 18.3097C13.3155 18.4586 12.8683 18.7723 12.5534 19.2023C10.6993 18.7617 9.04756 17.7049 7.86571 16.2031C6.68387 14.7013 6.04115 12.8426 6.04167 10.9279ZM7.25 10.9279C7.25047 9.58756 7.61887 8.27329 8.31464 7.12974C9.01042 5.9862 10.0066 5.0577 11.1936 4.44641C12.3806 3.83513 13.7124 3.56475 15.0424 3.66503C16.3724 3.76531 17.6492 4.23236 18.7321 5.01479C19.8151 5.79723 20.6622 6.86471 21.1804 8.09979C21.6986 9.33486 21.8678 10.6897 21.6692 12.0151C21.4707 13.3405 20.9122 14.5853 20.0551 15.6123C19.1981 16.6393 18.0757 17.4088 16.8115 17.8362C16.1614 17.2954 15.3439 16.9995 14.5 16.9995C13.6215 16.9995 12.8168 17.314 12.1885 17.8362C10.749 17.3496 9.498 16.421 8.61192 15.1815C7.72584 13.942 7.24946 12.4541 7.25 10.9279ZM14.5 24.2854C15.0801 24.2858 15.6518 24.1461 16.167 23.8784C16.6823 23.6106 17.1261 23.2224 17.4612 22.7465C17.7962 22.2706 18.0127 21.7209 18.0925 21.1435C18.1722 20.566 18.1129 19.9778 17.9196 19.4282H24.7708C25.8925 19.4282 26.9682 19.8759 27.7613 20.673C28.5544 21.4701 29 22.5511 29 23.6783V24.2854C29 27.1913 27.1597 29.6491 24.5473 31.32C21.9204 33.0006 18.3643 34 14.5 34C10.6358 34 7.08083 33.0006 4.45271 31.32C1.84029 29.6491 0 27.1913 0 24.2854V23.6783C0 22.5511 0.445572 21.4701 1.23869 20.673C2.03182 19.8759 3.10752 19.4282 4.22917 19.4282H5.87129C7.41669 21.0139 9.36502 22.1437 11.5045 22.6947C12.157 23.6552 13.2566 24.2854 14.5 24.2854Z" fill="black"/>
</svg>
