<svg width="11" height="9" viewBox="0 0 11 9" fill="none" xmlns="http://www.w3.org/2000/svg">
    <path d="M8.86875 3.60183C8.7148 2.82162 8.29474 2.11906 7.68032 1.61415C7.06591 1.10924 6.29526 0.833316 5.5 0.833496C4.17542 0.833496 3.025 1.58516 2.45208 2.68516C1.77844 2.75796 1.15546 3.07713 0.702849 3.58135C0.250237 4.08557 -7.86967e-05 4.73926 1.85592e-08 5.41683C1.85592e-08 6.93391 1.23292 8.16683 2.75 8.16683H8.70833C9.97333 8.16683 11 7.14016 11 5.87516C11 4.66516 10.0604 3.68433 8.86875 3.60183ZM4.90875 6.46641C4.86635 6.5089 4.81598 6.54261 4.76054 6.56561C4.70509 6.58861 4.64565 6.60045 4.58563 6.60045C4.5256 6.60045 4.46616 6.58861 4.41071 6.56561C4.35527 6.54261 4.3049 6.5089 4.2625 6.46641L3.3 5.5085C3.25757 5.46606 3.22391 5.41569 3.20094 5.36024C3.17798 5.3048 3.16616 5.24538 3.16616 5.18537C3.16616 5.06418 3.2143 4.94794 3.3 4.86225C3.3857 4.77655 3.50193 4.7284 3.62313 4.7284C3.74432 4.7284 3.86055 4.77655 3.94625 4.86225L4.58333 5.49933L6.63667 3.446C6.72236 3.3603 6.8386 3.31215 6.95979 3.31215C7.08099 3.31215 7.19722 3.3603 7.28292 3.446C7.36862 3.53169 7.41676 3.64793 7.41676 3.76912C7.41676 3.89032 7.36862 4.00655 7.28292 4.09225L4.90875 6.46641Z" fill="#FFCA09"/>
    </svg>
    