<svg width="30" height="30" viewBox="0 0 30 30" fill="none" xmlns="http://www.w3.org/2000/svg">
<path d="M12 4.875V5.25H18V4.875C18 4.07935 17.6839 3.31629 17.1213 2.75368C16.5587 2.19107 15.7956 1.875 15 1.875C14.2044 1.875 13.4413 2.19107 12.8787 2.75368C12.3161 3.31629 12 4.07935 12 4.875ZM10.125 5.25V4.875C10.125 3.58207 10.6386 2.34209 11.5529 1.42785C12.4671 0.513614 13.7071 0 15 0C16.2929 0 17.5329 0.513614 18.4471 1.42785C19.3614 2.34209 19.875 3.58207 19.875 4.875V5.25H28.3125C28.5611 5.25 28.7996 5.34877 28.9754 5.52459C29.1512 5.7004 29.25 5.93886 29.25 6.1875C29.25 6.43614 29.1512 6.6746 28.9754 6.85041C28.7996 7.02623 28.5611 7.125 28.3125 7.125H26.1248L24.6248 25.017C24.5108 26.3757 23.8905 27.642 22.8869 28.565C21.8832 29.4879 20.5695 30.0001 19.206 30H10.794C9.43064 29.9999 8.11708 29.4876 7.1136 28.5647C6.11012 27.6418 5.48996 26.3756 5.376 25.017L3.876 7.125H1.6875C1.43886 7.125 1.2004 7.02623 1.02459 6.85041C0.848772 6.6746 0.75 6.43614 0.75 6.1875C0.75 5.93886 0.848772 5.7004 1.02459 5.52459C1.2004 5.34877 1.43886 5.25 1.6875 5.25H10.125ZM13.125 12.1875C13.125 12.0644 13.1008 11.9425 13.0536 11.8287C13.0065 11.715 12.9375 11.6116 12.8504 11.5246C12.7634 11.4375 12.66 11.3685 12.5463 11.3214C12.4325 11.2742 12.3106 11.25 12.1875 11.25C12.0644 11.25 11.9425 11.2742 11.8287 11.3214C11.715 11.3685 11.6116 11.4375 11.5246 11.5246C11.4375 11.6116 11.3685 11.715 11.3214 11.8287C11.2742 11.9425 11.25 12.0644 11.25 12.1875V23.0625C11.25 23.1856 11.2742 23.3075 11.3214 23.4213C11.3685 23.535 11.4375 23.6384 11.5246 23.7254C11.6116 23.8125 11.715 23.8815 11.8287 23.9286C11.9425 23.9758 12.0644 24 12.1875 24C12.3106 24 12.4325 23.9758 12.5463 23.9286C12.66 23.8815 12.7634 23.8125 12.8504 23.7254C12.9375 23.6384 13.0065 23.535 13.0536 23.4213C13.1008 23.3075 13.125 23.1856 13.125 23.0625V12.1875ZM17.8125 11.25C17.295 11.25 16.875 11.67 16.875 12.1875V23.0625C16.875 23.3111 16.9738 23.5496 17.1496 23.7254C17.3254 23.9012 17.5639 24 17.8125 24C18.0611 24 18.2996 23.9012 18.4754 23.7254C18.6512 23.5496 18.75 23.3111 18.75 23.0625V12.1875C18.75 11.67 18.33 11.25 17.8125 11.25Z" fill="white"/>
</svg>
