<svg width="29" height="29" viewBox="0 0 29 29" fill="none" xmlns="http://www.w3.org/2000/svg">
<path fill-rule="evenodd" clip-rule="evenodd" d="M19.3346 10.8753C19.3346 12.1572 18.8254 13.3866 17.919 14.293C17.0126 15.1994 15.7832 15.7087 14.5013 15.7087C13.2194 15.7087 11.99 15.1994 11.0836 14.293C10.1772 13.3866 9.66797 12.1572 9.66797 10.8753C9.66797 9.59345 10.1772 8.36407 11.0836 7.45764C11.99 6.55122 13.2194 6.04199 14.5013 6.04199C15.7832 6.04199 17.0126 6.55122 17.919 7.45764C18.8254 8.36407 19.3346 9.59345 19.3346 10.8753ZM16.918 10.8753C16.918 11.5163 16.6634 12.131 16.2101 12.5842C15.7569 13.0374 15.1422 13.292 14.5013 13.292C13.8604 13.292 13.2457 13.0374 12.7925 12.5842C12.3392 12.131 12.0846 11.5163 12.0846 10.8753C12.0846 10.2344 12.3392 9.6197 12.7925 9.16648C13.2457 8.71327 13.8604 8.45866 14.5013 8.45866C15.1422 8.45866 15.7569 8.71327 16.2101 9.16648C16.6634 9.6197 16.918 10.2344 16.918 10.8753Z" fill="#FFD233"/>
<path fill-rule="evenodd" clip-rule="evenodd" d="M14.5007 1.2085C7.16003 1.2085 1.20898 7.15954 1.20898 14.5002C1.20898 21.8408 7.16003 27.7918 14.5007 27.7918C21.8413 27.7918 27.7923 21.8408 27.7923 14.5002C27.7923 7.15954 21.8413 1.2085 14.5007 1.2085ZM3.62565 14.5002C3.62565 17.0256 4.48719 19.3504 5.93115 21.1967C6.94548 19.8653 8.25375 18.7863 9.75388 18.0439C11.254 17.3015 12.9054 16.9157 14.5792 16.9168C16.2314 16.9149 17.8623 17.2903 19.3474 18.0145C20.8326 18.7386 22.1327 19.7923 23.1487 21.0952C24.1957 19.7221 24.9006 18.1194 25.2051 16.4197C25.5097 14.72 25.4052 12.9723 24.9002 11.321C24.3952 9.66977 23.5042 8.16251 22.301 6.92396C21.0979 5.6854 19.617 4.75116 17.9811 4.19853C16.3452 3.6459 14.6012 3.49076 12.8934 3.74596C11.1856 4.00117 9.56315 4.65937 8.16025 5.6661C6.75735 6.67284 5.61434 7.99917 4.8258 9.53536C4.03727 11.0715 3.62587 12.7734 3.62565 14.5002ZM14.5007 25.3752C12.0041 25.3792 9.58291 24.5203 7.64698 22.944C8.42613 21.8282 9.46334 20.9173 10.6703 20.2886C11.8773 19.66 13.2183 19.3323 14.5792 19.3335C15.9231 19.3323 17.2478 19.6518 18.4434 20.2655C19.639 20.8792 20.6709 21.7693 21.4534 22.8618C19.5025 24.4895 17.0413 25.3791 14.5007 25.3752Z" fill="#FFD233"/>
</svg>
