<svg xmlns="http://www.w3.org/2000/svg" xmlns:xlink="http://www.w3.org/1999/xlink" width="500" zoomAndPan="magnify" viewBox="0 0 375 374.999991" height="500" preserveAspectRatio="xMidYMid meet" version="1.0"><defs><g/><clipPath id="0526062441"><path d="M 59 139 L 318 139 L 318 192.144531 L 59 192.144531 Z M 59 139 " clip-rule="nonzero"/></clipPath></defs><g clip-path="url(#0526062441)"><path fill="#ff9901" d="M 130.226562 169.089844 C 172.070312 179.167969 259.011719 159.234375 275.949219 172.441406 C 243.542969 162.53125 161.933594 184.59375 130.226562 169.089844 Z M 60.9375 192.203125 C 61.765625 177.414062 72.335938 169.617188 88.328125 169.898438 C 83.675781 166.65625 70.675781 170.765625 71.996094 163.398438 C 97.164062 163.058594 122.238281 163.34375 146.824219 166.207031 C 133.917969 161.496094 123.351562 156.898438 120.449219 153.113281 C 157.109375 143.898438 188.816406 135.949219 218.015625 158.78125 C 215.34375 159.648438 212.628906 160.476562 209.878906 161.25 C 207.109375 158.972656 204.886719 156.542969 201.289062 156.542969 C 198.613281 156.542969 196.484375 157.40625 196.484375 158.539062 C 196.484375 159.613281 198.613281 160.476562 201.289062 160.476562 C 202.457031 160.476562 203.511719 160.289062 204.339844 160.046875 L 206.429688 162.230469 C 195.46875 165.1875 183.9375 167.46875 172.144531 169.464844 C 218.113281 166.65625 239.304688 155.597656 289.832031 166.996094 C 284.59375 167.183594 280.035156 167.617188 274.988281 167.335938 C 289.832031 175.378906 303.492188 168.691406 317.847656 175.777344 C 297.179688 163.359375 267.941406 156.332031 226.34375 158.652344 C 203.058594 141.433594 187.5 136.441406 155.265625 141.433594 C 135.050781 144.539062 115.402344 150.738281 95.128906 154.429688 C 82.132812 156.765625 69.714844 158.160156 62.59375 155.691406 C 64.101562 159.519531 65.363281 163.550781 65.457031 169.070312 C 57.152344 171.746094 58.507812 181.597656 60.9375 192.203125 Z M 133.277344 154.828125 C 170.902344 144.597656 188.308594 147.253906 200.875 152.980469 C 186.367188 149.289062 171.144531 146.234375 142.304688 155.84375 C 150.742188 162.777344 165.8125 162.871094 179.832031 164.039062 C 165.683594 164.378906 152.4375 166.996094 133.277344 154.828125 Z M 133.277344 154.828125 " fill-opacity="1" fill-rule="evenodd"/></g><g fill="#ffffff" fill-opacity="1"><g transform="translate(73.441406, 224.253573)"><g><path d="M 9.625 0 L 14.90625 -26.5625 L 4.03125 -26.5625 L 6 -36.234375 L 38.40625 -36.234375 L 36.4375 -26.5625 L 25.515625 -26.5625 L 20.234375 0 Z M 9.625 0 "/></g></g></g><g fill="#ffffff" fill-opacity="1"><g transform="translate(108.794721, 224.253573)"><g><path d="M -2.484375 0 L 18.84375 -36.234375 L 29.25 -36.234375 L 36.03125 0 L 25.671875 0 L 24.796875 -5.125 L 12.375 -5.125 L 9.3125 0 Z M 16 -12.78125 L 23.921875 -12.78125 L 22.15625 -24.015625 Z M 16 -12.78125 "/></g></g></g><g fill="#ffffff" fill-opacity="1"><g transform="translate(147.823122, 224.253573)"><g><path d="M -1.65625 0 L 14.59375 -18.796875 L 6.265625 -36.234375 L 16.984375 -36.234375 L 20.1875 -29.5 L 21.6875 -26.25 L 24.4375 -29.5 L 30.03125 -36.234375 L 42.65625 -36.234375 L 27.171875 -18.265625 L 36.03125 0 L 24.796875 0 L 21.640625 -6.78125 L 20.078125 -10.09375 L 17.296875 -6.78125 L 11.546875 0 Z M -1.65625 0 "/></g></g></g><g fill="#ffffff" fill-opacity="1"><g transform="translate(187.731471, 224.253573)"><g><path d="M 1.140625 0 L 8.390625 -36.234375 L 19 -36.234375 L 11.75 0 Z M 1.140625 0 "/></g></g></g><g fill="#ffffff" fill-opacity="1"><g transform="translate(206.055155, 224.253573)"><g/></g></g><g fill="#ffffff" fill-opacity="1"><g transform="translate(218.012136, 224.253573)"><g><path d="M 19.203125 0.78125 C 15.234375 0.78125 11.882812 -0.0546875 9.15625 -1.734375 C 6.4375 -3.410156 4.503906 -5.734375 3.359375 -8.703125 C 2.222656 -11.671875 2.035156 -15.066406 2.796875 -18.890625 C 3.554688 -22.585938 4.953125 -25.789062 6.984375 -28.5 C 9.023438 -31.207031 11.5625 -33.300781 14.59375 -34.78125 C 17.632812 -36.269531 21 -37.015625 24.6875 -37.015625 C 27.894531 -37.015625 30.734375 -36.46875 33.203125 -35.375 C 35.671875 -34.289062 37.65625 -32.773438 39.15625 -30.828125 C 40.65625 -28.878906 41.492188 -26.609375 41.671875 -24.015625 L 30.546875 -24.015625 C 30.054688 -25.191406 29.234375 -26.097656 28.078125 -26.734375 C 26.921875 -27.367188 25.535156 -27.6875 23.921875 -27.6875 C 22.117188 -27.6875 20.457031 -27.28125 18.9375 -26.46875 C 17.425781 -25.664062 16.144531 -24.535156 15.09375 -23.078125 C 14.039062 -21.628906 13.320312 -19.957031 12.9375 -18.0625 C 12.382812 -15.195312 12.769531 -12.894531 14.09375 -11.15625 C 15.425781 -9.414062 17.457031 -8.546875 20.1875 -8.546875 C 22.226562 -8.546875 24.050781 -9 25.65625 -9.90625 C 27.257812 -10.820312 28.472656 -12.078125 29.296875 -13.671875 L 19.25 -13.671875 L 20.765625 -21.015625 L 41.625 -21.015625 C 41.238281 -16.671875 40.050781 -12.863281 38.0625 -9.59375 C 36.082031 -6.332031 33.46875 -3.785156 30.21875 -1.953125 C 26.976562 -0.128906 23.304688 0.78125 19.203125 0.78125 Z M 19.203125 0.78125 "/></g></g></g><g fill="#ffffff" fill-opacity="1"><g transform="translate(260.042724, 224.253573)"><g><path d="M 19.515625 0.78125 C 15.515625 0.78125 12.132812 -0.0625 9.375 -1.75 C 6.613281 -3.445312 4.632812 -5.769531 3.4375 -8.71875 C 2.25 -11.675781 2.035156 -15.066406 2.796875 -18.890625 C 3.316406 -21.546875 4.253906 -23.988281 5.609375 -26.21875 C 6.972656 -28.445312 8.644531 -30.363281 10.625 -31.96875 C 12.613281 -33.570312 14.847656 -34.8125 17.328125 -35.6875 C 19.816406 -36.570312 22.441406 -37.015625 25.203125 -37.015625 C 29.242188 -37.015625 32.644531 -36.164062 35.40625 -34.46875 C 38.164062 -32.78125 40.140625 -30.460938 41.328125 -27.515625 C 42.523438 -24.566406 42.742188 -21.175781 41.984375 -17.34375 C 41.460938 -14.6875 40.519531 -12.242188 39.15625 -10.015625 C 37.789062 -7.785156 36.109375 -5.867188 34.109375 -4.265625 C 32.109375 -2.660156 29.875 -1.414062 27.40625 -0.53125 C 24.9375 0.34375 22.304688 0.78125 19.515625 0.78125 Z M 13.296875 -18.0625 C 12.742188 -15.34375 13.140625 -13.132812 14.484375 -11.4375 C 15.835938 -9.75 17.84375 -8.90625 20.5 -8.90625 C 22.289062 -8.90625 23.945312 -9.289062 25.46875 -10.0625 C 26.988281 -10.84375 28.28125 -11.929688 29.34375 -13.328125 C 30.414062 -14.722656 31.125 -16.335938 31.46875 -18.171875 C 32.019531 -20.898438 31.625 -23.109375 30.28125 -24.796875 C 28.9375 -26.484375 26.9375 -27.328125 24.28125 -27.328125 C 22.488281 -27.328125 20.820312 -26.9375 19.28125 -26.15625 C 17.75 -25.382812 16.460938 -24.300781 15.421875 -22.90625 C 14.390625 -21.507812 13.679688 -19.894531 13.296875 -18.0625 Z M 13.296875 -18.0625 "/></g></g></g></svg>